<svg preserveAspectRatio="none" width="100%" height="100%" overflow="visible" style="display: block;" viewBox="0 0 25 25" fill="none" xmlns="http://www.w3.org/2000/svg">
<g id="adventure">
<path id="Vector" opacity="0.35" d="M16.5979 3.72292L13.6604 2.54792C12.9156 2.25 12.0844 2.25 11.3396 2.54792L8.40208 3.72292C7.68958 4.00833 6.89479 4.00833 6.18229 3.72292C4.21875 2.9375 2.08333 4.38333 2.08333 6.49792V18.8104C2.08333 20.0323 2.82708 21.1313 3.96146 21.5854L6.18125 22.4729C6.89375 22.7583 7.68854 22.7583 8.40104 22.4729L11.3385 21.2979C12.0833 21 12.9146 21 13.6594 21.2979L16.5969 22.4729C17.3094 22.7583 18.1042 22.7583 18.8167 22.4729L21.0365 21.5854C22.1729 21.1313 22.9167 20.0323 22.9167 18.8104V6.49792C22.9167 4.38333 20.7812 2.9375 18.8187 3.72292C18.1062 4.00729 17.3104 4.00729 16.5979 3.72292Z" fill="url(#paint0_linear_0_79)"/>
<path id="Vector_2" d="M5.20833 15.625C5.78363 15.625 6.25 15.1586 6.25 14.5833C6.25 14.008 5.78363 13.5417 5.20833 13.5417C4.63304 13.5417 4.16667 14.008 4.16667 14.5833C4.16667 15.1586 4.63304 15.625 5.20833 15.625Z" fill="url(#paint1_linear_0_79)"/>
<path id="Vector_3" d="M9.375 10.4167C9.9503 10.4167 10.4167 9.9503 10.4167 9.375C10.4167 8.7997 9.9503 8.33333 9.375 8.33333C8.7997 8.33333 8.33333 8.7997 8.33333 9.375C8.33333 9.9503 8.7997 10.4167 9.375 10.4167Z" fill="url(#paint2_linear_0_79)"/>
<path id="Vector_4" d="M7.29167 12.5C7.86696 12.5 8.33333 12.0336 8.33333 11.4583C8.33333 10.883 7.86696 10.4167 7.29167 10.4167C6.71637 10.4167 6.25 10.883 6.25 11.4583C6.25 12.0336 6.71637 12.5 7.29167 12.5Z" fill="url(#paint3_linear_0_79)"/>
<path id="Vector_5" d="M13.5417 13.5417C14.117 13.5417 14.5833 13.0753 14.5833 12.5C14.5833 11.9247 14.117 11.4583 13.5417 11.4583C12.9664 11.4583 12.5 11.9247 12.5 12.5C12.5 13.0753 12.9664 13.5417 13.5417 13.5417Z" fill="url(#paint4_linear_0_79)"/>
<path id="Vector_6" d="M12.5 10.4167C13.0753 10.4167 13.5417 9.9503 13.5417 9.375C13.5417 8.7997 13.0753 8.33333 12.5 8.33333C11.9247 8.33333 11.4583 8.7997 11.4583 9.375C11.4583 9.9503 11.9247 10.4167 12.5 10.4167Z" fill="url(#paint5_linear_0_79)"/>
<path id="Vector_7" d="M19.7021 13.0208L20.5281 12.1948C20.9354 11.7875 20.9354 11.1292 20.5281 10.7219C20.1208 10.3146 19.4625 10.3146 19.0552 10.7219L18.2292 11.5479L17.4031 10.7219C16.9958 10.3146 16.3375 10.3146 15.9302 10.7219C15.5229 11.1292 15.5229 11.7875 15.9302 12.1948L16.7563 13.0208L15.9302 13.8469C15.5229 14.2542 15.5229 14.9125 15.9302 15.3198C16.1333 15.5229 16.4 15.625 16.6667 15.625C16.9333 15.625 17.2 15.5229 17.4031 15.3198L18.2292 14.4937L19.0552 15.3198C19.2583 15.5229 19.525 15.625 19.7917 15.625C20.0583 15.625 20.325 15.5229 20.5281 15.3198C20.9354 14.9125 20.9354 14.2542 20.5281 13.8469L19.7021 13.0208Z" fill="url(#paint6_linear_0_79)"/>
</g>
<defs>
<linearGradient id="paint0_linear_0_79" x1="2.08333" y1="12.5057" x2="20.7172" y2="12.596" gradientUnits="userSpaceOnUse">
<stop stop-color="#AD54F0"/>
<stop offset="1" stop-color="#D24DBC"/>
</linearGradient>
<linearGradient id="paint1_linear_0_79" x1="4.16667" y1="14.5833" x2="6.03005" y2="14.5922" gradientUnits="userSpaceOnUse">
<stop stop-color="#AD54F0"/>
<stop offset="1" stop-color="#D24DBC"/>
</linearGradient>
<linearGradient id="paint2_linear_0_79" x1="8.33333" y1="9.375" x2="10.1967" y2="9.38382" gradientUnits="userSpaceOnUse">
<stop stop-color="#AD54F0"/>
<stop offset="1" stop-color="#D24DBC"/>
</linearGradient>
<linearGradient id="paint3_linear_0_79" x1="6.25" y1="11.4583" x2="8.11339" y2="11.4672" gradientUnits="userSpaceOnUse">
<stop stop-color="#AD54F0"/>
<stop offset="1" stop-color="#D24DBC"/>
</linearGradient>
<linearGradient id="paint4_linear_0_79" x1="12.5" y1="12.5" x2="14.3634" y2="12.5088" gradientUnits="userSpaceOnUse">
<stop stop-color="#AD54F0"/>
<stop offset="1" stop-color="#D24DBC"/>
</linearGradient>
<linearGradient id="paint5_linear_0_79" x1="11.4583" y1="9.375" x2="13.3217" y2="9.38382" gradientUnits="userSpaceOnUse">
<stop stop-color="#AD54F0"/>
<stop offset="1" stop-color="#D24DBC"/>
</linearGradient>
<linearGradient id="paint6_linear_0_79" x1="15.6247" y1="13.0207" x2="20.2837" y2="13.0428" gradientUnits="userSpaceOnUse">
<stop stop-color="#AD54F0"/>
<stop offset="1" stop-color="#D24DBC"/>
</linearGradient>
</defs>
</svg>
