<svg preserveAspectRatio="none" width="100%" height="100%" overflow="visible" style="display: block;" viewBox="0 0 15.9541 17.8287" fill="none" xmlns="http://www.w3.org/2000/svg">
<g id="Icon">
<path id="Vector" d="M0.30086 17.0657C0.110288 16.8646 1.49021e-09 16.5515 1.49021e-09 16.146V1.68227C1.49021e-09 1.27678 0.110288 0.963662 0.30086 0.762549L0.347895 0.718402L8.38761 8.82012V9.01142L0.347895 17.1131L0.30086 17.0657Z" fill="var(--fill-0, white)"/>
<path id="Vector_2" d="M12.0375 6.11818L9.36055 8.82011V9.01141L12.0407 11.7133L12.1007 11.6782L15.2748 9.85755C16.1806 9.34088 16.1806 8.49065 15.2748 7.9707L12.1007 6.15333L12.0375 6.11818V6.11818Z" fill="var(--fill-0, white)"/>
<path id="Vector_3" d="M11.614 5.65015L8.87386 8.41258L0.787109 0.259367C1.08797 -0.0594694 1.57859 -0.097894 2.13652 0.220942L11.614 5.65015" fill="var(--fill-0, white)"/>
<path id="Vector_4" d="M11.614 12.1815L2.13652 17.6107C1.57859 17.9263 1.08797 17.8879 0.787109 17.569L8.87386 9.41909L11.614 12.1815Z" fill="var(--fill-0, white)"/>
</g>
</svg>
