<svg preserveAspectRatio="none" width="100%" height="100%" overflow="visible" style="display: block;" viewBox="0 0 22 26" fill="none" xmlns="http://www.w3.org/2000/svg">
<g id="Vector">
<path d="M18.375 13.8267C18.3443 10.542 21.1722 8.94402 21.3015 8.86962C19.7 6.62445 17.2176 6.31768 16.3453 6.29322C14.2604 6.08226 12.238 7.49276 11.176 7.49276C10.0928 7.49276 8.45728 6.31361 6.69462 6.34826C4.42637 6.38189 2.30439 7.64461 1.14059 9.60545C-1.26121 13.6036 0.530066 19.4789 2.83117 22.7106C3.98226 24.2934 5.32731 26.0606 7.08785 25.9984C8.81024 25.9301 9.45361 24.9426 11.5321 24.9426C13.5916 24.9426 14.1957 25.9984 15.9913 25.9587C17.8398 25.9301 19.0036 24.3688 20.1144 22.7718C21.4446 20.9577 21.9788 19.1712 22 19.0794C21.9565 19.0652 18.41 17.7637 18.375 13.8267Z" fill="white"/>
<path d="M14.9833 4.16729C15.9096 3.05336 16.5435 1.53789 16.3675 0C15.0267 0.0570722 13.3499 0.891753 12.3843 1.98122C11.53 2.94125 10.7669 4.51482 10.964 5.99462C12.4702 6.10264 14.0166 5.26389 14.9833 4.16729Z" fill="white"/>
</g>
</svg>
