<svg preserveAspectRatio="none" width="100%" height="100%" overflow="visible" style="display: block;" viewBox="0 0 18 18" fill="none" xmlns="http://www.w3.org/2000/svg">
<g id="icons8_external_link_1 1">
<path id="Vector" d="M15.5515 1.86987C15.5312 1.87048 15.5109 1.87219 15.4907 1.875H10.3125C10.238 1.87395 10.164 1.88772 10.0948 1.91551C10.0256 1.94331 9.96266 1.98457 9.90958 2.03691C9.8565 2.08925 9.81435 2.15161 9.78558 2.22038C9.75681 2.28915 9.74199 2.36295 9.74199 2.4375C9.74199 2.51205 9.75681 2.58585 9.78558 2.65462C9.81435 2.72339 9.8565 2.78575 9.90958 2.83809C9.96266 2.89043 10.0256 2.93169 10.0948 2.95949C10.164 2.98728 10.238 3.00105 10.3125 3H14.2046L8.4148 8.7898C8.36081 8.84163 8.31771 8.90371 8.28802 8.97241C8.25833 9.0411 8.24265 9.11503 8.24189 9.18987C8.24113 9.2647 8.2553 9.33894 8.28359 9.40822C8.31188 9.47751 8.35371 9.54046 8.40663 9.59338C8.45954 9.64629 8.52249 9.68812 8.59178 9.71641C8.66106 9.7447 8.7353 9.75888 8.81013 9.75812C8.88497 9.75735 8.9589 9.74167 9.02759 9.71198C9.09629 9.68229 9.15837 9.63919 9.21021 9.58521L15 3.79541V7.6875C14.9989 7.76204 15.0127 7.83604 15.0405 7.90521C15.0683 7.97438 15.1096 8.03734 15.1619 8.09042C15.2142 8.1435 15.2766 8.18566 15.3454 8.21443C15.4142 8.2432 15.488 8.25801 15.5625 8.25801C15.637 8.25801 15.7108 8.2432 15.7796 8.21443C15.8484 8.18566 15.9108 8.1435 15.9631 8.09042C16.0154 8.03734 16.0567 7.97438 16.0845 7.90521C16.1123 7.83604 16.1261 7.76204 16.125 7.6875V2.50854C16.1361 2.42761 16.1294 2.34524 16.1055 2.26715C16.0815 2.18906 16.0408 2.11712 15.9862 2.05635C15.9316 1.99557 15.8645 1.9474 15.7894 1.9152C15.7144 1.883 15.6332 1.86753 15.5515 1.86987ZM4.6875 3C3.14081 3 1.875 4.26581 1.875 5.8125V13.3125C1.875 14.8592 3.14081 16.125 4.6875 16.125H12.1875C13.7342 16.125 15 14.8592 15 13.3125V9.5625C15.0011 9.48796 14.9873 9.41396 14.9595 9.34479C14.9317 9.27562 14.8904 9.21266 14.8381 9.15958C14.7858 9.1065 14.7234 9.06435 14.6546 9.03558C14.5858 9.00681 14.512 8.99199 14.4375 8.99199C14.363 8.99199 14.2892 9.00681 14.2204 9.03558C14.1516 9.06435 14.0892 9.1065 14.0369 9.15958C13.9846 9.21266 13.9433 9.27562 13.9155 9.34479C13.8877 9.41396 13.8739 9.48796 13.875 9.5625V13.3125C13.875 14.2513 13.1263 15 12.1875 15H4.6875C3.74869 15 3 14.2513 3 13.3125V5.8125C3 4.87369 3.74869 4.125 4.6875 4.125H8.4375C8.51204 4.12605 8.58604 4.11228 8.65521 4.08449C8.72438 4.05669 8.78734 4.01543 8.84042 3.96309C8.8935 3.91075 8.93566 3.84839 8.96443 3.77962C8.9932 3.71085 9.00801 3.63705 9.00801 3.5625C9.00801 3.48795 8.9932 3.41415 8.96443 3.34538C8.93566 3.27661 8.8935 3.21425 8.84042 3.16191C8.78734 3.10957 8.72438 3.06831 8.65521 3.04051C8.58604 3.01272 8.51204 2.99895 8.4375 3H4.6875Z" fill="url(#paint0_linear_0_136)"/>
</g>
<defs>
<linearGradient id="paint0_linear_0_136" x1="1.875" y1="8.99732" x2="14.6252" y2="9.05768" gradientUnits="userSpaceOnUse">
<stop stop-color="#AD54F0"/>
<stop offset="1" stop-color="#D24DBC"/>
</linearGradient>
</defs>
</svg>
