<svg preserveAspectRatio="none" width="100%" height="100%" overflow="visible" style="display: block;" viewBox="0 0 30 30" fill="none" xmlns="http://www.w3.org/2000/svg">
<g id="icons8_more_than_2 2">
<path id="Vector" d="M9.66309 3.74023C9.47652 3.74308 9.29504 3.80154 9.14188 3.90811C8.98872 4.01469 8.87084 4.16454 8.80333 4.3385C8.73582 4.51245 8.72175 4.70259 8.76292 4.88458C8.80409 5.06657 8.89862 5.23215 9.03442 5.36011L18.9661 15L9.03442 24.6399C8.94409 24.7252 8.87161 24.8276 8.82118 24.9411C8.77076 25.0546 8.7434 25.1771 8.7407 25.3013C8.738 25.4255 8.76001 25.549 8.80545 25.6646C8.85089 25.7802 8.91886 25.8857 9.0054 25.9748C9.09194 26.0639 9.19533 26.135 9.30957 26.1838C9.4238 26.2326 9.5466 26.2583 9.67083 26.2592C9.79506 26.2602 9.91824 26.2364 10.0332 26.1894C10.1482 26.1423 10.2527 26.0729 10.3406 25.9851L20.9656 15.6726C21.0556 15.5852 21.1271 15.4807 21.1759 15.3651C21.2248 15.2496 21.25 15.1254 21.25 15C21.25 14.8746 21.2248 14.7504 21.1759 14.6349C21.1271 14.5193 21.0556 14.4148 20.9656 14.3274L10.3406 4.01489C10.2518 3.92607 10.1461 3.85599 10.0297 3.80881C9.91332 3.76163 9.78865 3.73831 9.66309 3.74023Z" fill="var(--fill-0, #AFAFAF)"/>
</g>
</svg>
