<svg preserveAspectRatio="none" width="100%" height="100%" overflow="visible" style="display: block;" viewBox="0 0 20 20" fill="none" xmlns="http://www.w3.org/2000/svg">
<g id="icons8_Share 1">
<path id="Vector" d="M14.7852 2.49349C14.6608 2.49352 14.5392 2.53066 14.4361 2.60016C14.3329 2.66965 14.2528 2.76835 14.2061 2.88361C14.1593 2.99887 14.148 3.12547 14.1736 3.24719C14.1992 3.36891 14.2606 3.48023 14.3498 3.56689L15.3662 4.58333H14.7917C9.85141 4.58333 5.83333 8.60141 5.83333 13.5417C5.83216 13.6245 5.84746 13.7067 5.87835 13.7836C5.90923 13.8604 5.95508 13.9304 6.01323 13.9894C6.07139 14.0483 6.14068 14.0952 6.21709 14.1271C6.2935 14.1591 6.37551 14.1756 6.45833 14.1756C6.54116 14.1756 6.62316 14.1591 6.69957 14.1271C6.77599 14.0952 6.84528 14.0483 6.90343 13.9894C6.96159 13.9304 7.00744 13.8604 7.03832 13.7836C7.0692 13.7067 7.0845 13.6245 7.08333 13.5417C7.08333 9.27692 10.5269 5.83333 14.7917 5.83333H15.3662L14.3498 6.84977C14.2898 6.90736 14.2419 6.97634 14.2089 7.05267C14.1759 7.129 14.1585 7.21115 14.1577 7.2943C14.1568 7.37745 14.1726 7.45993 14.204 7.53692C14.2354 7.6139 14.2819 7.68384 14.3407 7.74264C14.3995 7.80144 14.4694 7.84791 14.5464 7.87934C14.6234 7.91077 14.7059 7.92653 14.789 7.92568C14.8722 7.92484 14.9543 7.90741 15.0307 7.87442C15.107 7.84143 15.176 7.79354 15.2336 7.73356L17.2632 5.70394C17.3396 5.64537 17.4014 5.56995 17.4438 5.48356C17.4863 5.39717 17.5082 5.30215 17.5079 5.2059C17.5075 5.10965 17.485 5.01477 17.442 4.92867C17.399 4.84256 17.3367 4.76754 17.2599 4.70947L15.2336 2.68311C15.1753 2.62311 15.1056 2.57542 15.0286 2.54285C14.9516 2.51028 14.8688 2.49349 14.7852 2.49349ZM5.20833 2.5C3.72003 2.5 2.5 3.72003 2.5 5.20833V14.7917C2.5 16.28 3.72003 17.5 5.20833 17.5H14.7917C16.28 17.5 17.5 16.28 17.5 14.7917V11.4583C17.5012 11.3755 17.4859 11.2933 17.455 11.2164C17.4241 11.1396 17.3783 11.0696 17.3201 11.0106C17.2619 10.9517 17.1927 10.9048 17.1162 10.8729C17.0398 10.8409 16.9578 10.8244 16.875 10.8244C16.7922 10.8244 16.7102 10.8409 16.6338 10.8729C16.5573 10.9048 16.4881 10.9517 16.4299 11.0106C16.3717 11.0696 16.3259 11.1396 16.295 11.2164C16.2641 11.2933 16.2488 11.3755 16.25 11.4583V14.7917C16.25 15.6042 15.6042 16.25 14.7917 16.25H5.20833C4.39581 16.25 3.75 15.6042 3.75 14.7917V5.20833C3.75 4.39581 4.39581 3.75 5.20833 3.75H8.54167C8.62449 3.75117 8.70671 3.73587 8.78357 3.70499C8.86042 3.6741 8.93037 3.62825 8.98936 3.5701C9.04834 3.51195 9.09517 3.44265 9.12714 3.36624C9.15911 3.28983 9.17557 3.20783 9.17557 3.125C9.17557 3.04217 9.15911 2.96017 9.12714 2.88376C9.09517 2.80735 9.04834 2.73805 8.98936 2.6799C8.93037 2.62175 8.86042 2.5759 8.78357 2.54501C8.70671 2.51413 8.62449 2.49883 8.54167 2.5H5.20833Z" fill="var(--fill-0, white)"/>
</g>
</svg>
