<svg preserveAspectRatio="none" width="100%" height="100%" overflow="visible" style="display: block;" viewBox="0 0 25 25" fill="none" xmlns="http://www.w3.org/2000/svg">
<g id="icons8_elephant 1">
<path id="Vector" opacity="0.35" d="M18.7625 20.851L19.2708 21.3542L18.749 20.8323C18.7542 20.8385 18.7563 20.8458 18.7625 20.851Z" fill="var(--fill-0, white)"/>
<path id="Vector_2" opacity="0.35" d="M24.5771 10.9375C24.3948 7.48021 21.8333 3.44062 18.3833 3.15312C18.1646 3.13437 17.9396 3.125 17.7083 3.125C15.6062 3.125 13.8062 4.37604 12.9833 6.16875C11.6896 5.43021 9.11146 5.06875 7.47604 5.25729C4.81563 5.56562 2.53021 7.40937 1.54583 9.90104C0.9625 11.3792 0.933333 12.7844 1.21667 14.074L1.98021 21.9906C2.03854 22.5177 2.48437 22.9167 3.01562 22.9167H6.25C6.825 22.9167 7.29167 22.45 7.29167 21.875V21.1771C7.29167 20.324 7.98333 19.6333 8.83542 19.6333H8.89688C9.73229 19.6333 10.4156 20.3167 10.4156 21.1521V21.875C10.4156 22.45 10.8823 22.9167 11.4573 22.9167H14.6917C15.2229 22.9167 15.6687 22.5177 15.7271 21.9896C15.7271 21.9896 16.1917 19.074 16.4437 16.8885C16.5302 16.1354 17.1385 15.5521 17.8937 15.4937L17.9385 15.4906C18.8833 15.4167 19.6958 16.1885 19.649 17.1354C19.5958 18.1958 19.3021 18.7937 18.674 19.6365C18.401 20.0031 18.4333 20.5052 18.749 20.8333L19.6667 21.751C20.0667 22.151 20.7208 22.1 21.0646 21.65C22.2656 20.076 24.8583 16.2844 24.5771 10.9375Z" fill="var(--fill-0, white)"/>
<path id="Vector_3" d="M15.625 4.25625C15.625 3.62708 14.9812 3.11563 14.2469 3.19896C11.4583 3.51458 9.375 4.84062 9.375 7.36875C9.375 9.81979 11.3333 12.626 13.9937 13.4781C14.7854 13.7323 15.625 13.1854 15.625 12.4667V4.25625Z" fill="var(--fill-0, white)"/>
</g>
</svg>
