<svg preserveAspectRatio="none" width="100%" height="100%" overflow="visible" style="display: block;" viewBox="0 0 211 26" fill="none" xmlns="http://www.w3.org/2000/svg">
<g id="SocialMedia" clip-path="url(#clip0_0_88)">
<g id="Group">
<path id="Vector" d="M13.1875 -0.1875C5.9041 -0.1875 0 5.7166 0 13C0 20.2834 5.9041 26.1875 13.1875 26.1875C20.4709 26.1875 26.375 20.2834 26.375 13C26.375 5.7166 20.4709 -0.1875 13.1875 -0.1875ZM21.4655 16.4362C21.413 16.6614 21.4239 16.9062 21.3955 17.1379C21.0086 20.2266 18.8468 21.3261 15.957 21.361C15.9024 21.361 15.8106 21.3392 15.7756 21.3938C13.9832 21.3938 12.1361 21.4507 10.3502 21.3938C9.03649 21.3523 7.71621 21.2321 6.61014 20.4495C4.99477 19.3041 4.71497 17.5926 4.65814 15.7324C4.77836 13.4722 4.46141 11.0065 4.76306 8.77248C5.1915 5.58763 7.44734 4.67393 10.3502 4.58212H15.7428L17.2686 4.68486C19.2993 4.95372 20.8206 6.16689 21.2862 8.19322L21.4677 9.44136V16.4362H21.4655Z" fill="var(--fill-0, white)" fill-opacity="0.6"/>
<path id="Vector_2" d="M16.0879 6.15783C14.2059 6.07477 12.1315 6.06603 10.245 6.13379C8.11379 6.21029 6.55962 6.68682 6.27764 9.06726C6.10277 10.5362 6.20332 12.1494 6.20988 13.627C6.22081 16.4097 5.73554 19.4743 9.38161 19.8175C9.81442 19.859 10.2647 19.8372 10.6975 19.8503C12.5949 19.9071 14.5272 19.929 16.418 19.8197C18.8837 19.6776 19.7887 18.7005 19.9198 16.2567C20.0357 14.1101 20.0313 11.9002 19.9198 9.75363C19.7777 7.03 18.7241 6.27587 16.0879 6.16002V6.15783ZM16.8224 15.1637C15.1895 17.9857 11.0888 18.0251 9.38161 15.249C7.6482 12.4292 9.64174 8.75905 12.9402 8.66068C16.324 8.56013 18.523 12.2215 16.8224 15.1637ZM17.6989 9.50662C16.2672 9.64433 16.1732 7.50653 17.5678 7.48904C18.8531 7.47374 18.9187 9.38859 17.6989 9.50662Z" fill="var(--fill-0, white)" fill-opacity="0.6"/>
<path id="Vector_3" d="M12.7761 10.206C10.8416 10.3875 9.70275 12.5274 10.5727 14.2565C11.552 16.2041 14.3827 16.3069 15.4844 14.4204C16.6561 12.4138 15.0822 9.98962 12.7761 10.206Z" fill="var(--fill-0, white)" fill-opacity="0.6"/>
</g>
<path id="Vector_4" d="M74.5945 26.1875V16.933H77.6585L78.2498 13.1362C78.2544 13.1154 78.2246 13.0762 78.2131 13.0762H74.5922V10.4028C74.6335 10.0452 74.7068 9.6969 74.8947 9.3878C75.5983 8.22292 77.2644 8.58738 78.3988 8.5251V5.26573C78.0596 5.21268 77.7158 5.15501 77.3721 5.1158C75.2568 4.88282 72.9834 4.85514 71.5282 6.67051C70.0798 8.47666 70.5428 10.9218 70.4649 13.0762H67.1281V16.933H70.4649V26.1875C64.7172 25.334 60.1521 20.5476 59.444 14.7509C58.6098 7.93458 63.0649 1.55886 69.72 0.119483C78.5729 -1.79508 86.5871 5.51486 85.6429 14.5548C85.031 20.4184 80.3949 25.3386 74.5945 26.1875Z" fill="var(--fill-0, white)" fill-opacity="0.6"/>
<path id="Vector_5" d="M121.904 -0.168674L141.729 -0.1875C143.51 0.00311162 144.91 1.41976 145.063 3.20821V22.7871C144.907 24.5967 143.474 26.0322 141.663 26.1875H122.087C120.28 26.0181 118.84 24.6061 118.688 22.7871L118.692 3.14467C118.876 1.43388 120.196 0.0595891 121.904 -0.168674ZM124.581 4.22716C122.379 4.54485 122.591 8.30295 125.372 7.83231C127.402 7.48874 127.191 3.85064 124.581 4.22716ZM126.727 9.35955H123.087V21.7893H126.727V9.35955ZM132.633 9.35955H128.925V21.7893H132.633V13.9954C132.633 13.9531 132.847 13.513 132.894 13.433C133.753 11.9505 136.021 12.1505 136.717 13.6871C136.806 13.8825 137.025 14.6378 137.025 14.819V21.7893H140.665C140.616 18.9701 140.771 16.1345 140.578 13.3271C140.166 10.5856 138.256 9.11246 135.482 9.35955C134.24 9.47016 133.334 10.1667 132.63 11.1433V9.3572L132.633 9.35955Z" fill="var(--fill-0, white)" fill-opacity="0.6"/>
<g id="Gd1WKt">
<path id="Vector_6" d="M190.249 -0.151285C200.786 -0.914882 207.966 10.5503 202.561 19.7225C197.442 28.4104 184.786 28.3226 179.779 19.5761C174.959 11.1585 180.645 0.546991 190.249 -0.149032V-0.151285ZM194.275 5.11731H191.745L191.569 5.29301V16.4902C191.569 16.8078 190.958 17.5286 190.686 17.7268C189.923 18.2832 189.098 18.362 188.268 17.9093C185.827 16.5825 187.424 12.92 190.04 13.7196V11.0684C189.332 10.6517 187.993 11.0099 187.251 11.341C182.168 13.6092 184.293 21.5831 189.95 20.8803C191.7 20.6618 194.275 18.7269 194.275 16.8438V10.5391C194.959 10.726 195.523 11.1608 196.223 11.3567C196.81 11.5212 197.431 11.6315 198.04 11.6V8.89025C195.937 8.90602 194.352 7.17159 194.275 5.11957V5.11731Z" fill="var(--fill-0, white)" fill-opacity="0.6"/>
</g>
</g>
<defs>
<clipPath id="clip0_0_88">
<rect width="211" height="26" fill="white"/>
</clipPath>
</defs>
</svg>
