<svg preserveAspectRatio="none" width="100%" height="100%" overflow="visible" style="display: block;" viewBox="0 0 25 25" fill="none" xmlns="http://www.w3.org/2000/svg">
<g id="solo">
<path id="Vector" d="M13.5417 8.42396V15.2083L12.4458 19.3135L10.974 16.9656C10.7385 16.5896 10.2094 16.5427 9.91146 16.8719L8.03646 18.9417L6.50625 17.1365L8.33333 13.6115V8.33333L12.6292 7.64583C13.1083 7.56979 13.5417 7.93854 13.5417 8.42396Z" fill="url(#paint0_linear_0_69)"/>
<path id="Vector_2" d="M5.93333 13.3958C5.74479 13.3958 5.55521 13.3656 5.36875 13.3042L2.79583 12.4458C2.25 12.2635 1.95521 11.674 2.1375 11.1281C2.31979 10.5823 2.90833 10.2854 3.45521 10.4698L5.80521 11.2531L7.18542 9.0625C7.65417 8.31875 8.42396 7.82396 9.29688 7.70625L12.2354 7.31146C12.874 7.22708 13.5302 7.35313 14.0885 7.66979L16.2198 8.875L18.1406 7.48854C18.6083 7.15313 19.2583 7.25833 19.5948 7.72396C19.9313 8.19063 19.826 8.84167 19.3594 9.17812L17.3667 10.6167C16.7521 11.0604 15.9302 11.1052 15.2698 10.7312L13.0615 9.48229C12.8958 9.38854 12.701 9.35 12.5125 9.37604L9.57396 9.77083C9.31562 9.80625 9.0875 9.95208 8.94792 10.1729L7.44271 12.5625C7.10729 13.0927 6.53333 13.3958 5.93333 13.3958Z" fill="url(#paint1_linear_0_69)"/>
<path id="Vector_3" d="M15.626 22.9167C15.3115 22.9167 15.001 22.775 14.7958 22.5052L12.8396 19.9323C12.3396 19.275 12.0094 18.4958 11.8844 17.6781L11.4719 14.975C11.4635 14.9229 11.4594 14.8708 11.4594 14.8177V12.8125C11.4594 12.2375 11.926 11.7708 12.501 11.7708C13.076 11.7708 13.5427 12.2375 13.5427 12.8125V14.7396L13.9438 17.3646C14.0156 17.8385 14.2073 18.2906 14.4979 18.6719L16.4542 21.2448C16.8021 21.7031 16.7135 22.3562 16.2563 22.7042C16.0667 22.8479 15.8458 22.9167 15.626 22.9167Z" fill="url(#paint2_linear_0_69)"/>
<path id="Vector_4" d="M8.21563 22.9167C7.75833 22.9167 7.33854 22.6125 7.21146 22.151L6.34583 19.001C6.14063 18.2542 6.26875 17.4552 6.69896 16.8094L8.66563 13.8594C8.98542 13.3813 9.63021 13.25 10.1104 13.5708C10.5885 13.8906 10.7177 14.5365 10.399 15.0156L8.43229 17.9646C8.3375 18.1073 8.30833 18.2844 8.35417 18.449L9.21979 21.6C9.37188 22.1552 9.04583 22.7281 8.49167 22.8802C8.39896 22.9052 8.30625 22.9167 8.21563 22.9167Z" fill="url(#paint3_linear_0_69)"/>
<path id="Vector_5" opacity="0.35" d="M9.89583 6.25C11.3341 6.25 12.5 5.08408 12.5 3.64583C12.5 2.20759 11.3341 1.04167 9.89583 1.04167C8.45759 1.04167 7.29167 2.20759 7.29167 3.64583C7.29167 5.08408 8.45759 6.25 9.89583 6.25Z" fill="url(#paint4_linear_0_69)"/>
<path id="Vector_6" opacity="0.35" d="M22.3958 11.4583H20.8333C20.2583 11.4583 19.7917 11.925 19.7917 12.5V14.6792C19.6281 14.6208 19.4542 14.5833 19.2708 14.5833C18.4083 14.5833 17.7083 15.2833 17.7083 16.1458C17.7083 17.0083 18.4083 17.7083 19.2708 17.7083C20.1333 17.7083 20.8333 17.0083 20.8333 16.1458V13.5417H21.875C22.45 13.5417 22.9167 13.075 22.9167 12.5V11.9792C22.9167 11.6917 22.6833 11.4583 22.3958 11.4583Z" fill="url(#paint5_linear_0_69)"/>
</g>
<defs>
<linearGradient id="paint0_linear_0_69" x1="6.50625" y1="13.4747" x2="12.799" y2="13.4927" gradientUnits="userSpaceOnUse">
<stop stop-color="#AD54F0"/>
<stop offset="1" stop-color="#D24DBC"/>
</linearGradient>
<linearGradient id="paint1_linear_0_69" x1="2.08357" y1="10.3409" x2="17.9195" y2="10.5582" gradientUnits="userSpaceOnUse">
<stop stop-color="#AD54F0"/>
<stop offset="1" stop-color="#D24DBC"/>
</linearGradient>
<linearGradient id="paint2_linear_0_69" x1="11.4594" y1="17.3437" x2="16.117" y2="17.354" gradientUnits="userSpaceOnUse">
<stop stop-color="#AD54F0"/>
<stop offset="1" stop-color="#D24DBC"/>
</linearGradient>
<linearGradient id="paint3_linear_0_69" x1="6.25015" y1="18.1559" x2="10.1174" y2="18.1642" gradientUnits="userSpaceOnUse">
<stop stop-color="#AD54F0"/>
<stop offset="1" stop-color="#D24DBC"/>
</linearGradient>
<linearGradient id="paint4_linear_0_69" x1="7.29167" y1="3.64583" x2="11.9501" y2="3.66789" gradientUnits="userSpaceOnUse">
<stop stop-color="#AD54F0"/>
<stop offset="1" stop-color="#D24DBC"/>
</linearGradient>
<linearGradient id="paint5_linear_0_69" x1="17.7083" y1="14.5833" x2="22.3668" y2="14.6017" gradientUnits="userSpaceOnUse">
<stop stop-color="#AD54F0"/>
<stop offset="1" stop-color="#D24DBC"/>
</linearGradient>
</defs>
</svg>
