<svg preserveAspectRatio="none" width="100%" height="100%" overflow="visible" style="display: block;" viewBox="0 0 6.36399 7.05855" fill="none" xmlns="http://www.w3.org/2000/svg">
<path id="Vector" d="M3.6814 6.89115H0.228299C0.228299 6.89115 0.0856155 6.89115 0.0570775 6.83535C0.0285394 6.77955 0 6.75165 0 6.69585C0 6.64005 1.30765e-06 6.61216 0.0570775 6.55636C0.0856155 6.52846 0.14269 6.50056 0.199766 6.47266L0.542219 6.41686C0.542219 6.41686 0.713453 6.36106 0.770529 6.30526C0.827605 6.24946 0.856141 6.16576 0.913218 6.05417C0.913218 5.97047 0.970285 5.80307 1.02736 5.60778C1.08444 5.41248 1.14152 5.16139 1.22714 4.91029C1.31275 4.6313 1.36982 4.35231 1.45544 4.04541C1.54105 3.73852 1.62667 3.43162 1.71228 3.12473C1.79789 2.81784 1.88351 2.51095 1.96912 2.23195C2.05474 1.95296 2.11181 1.70186 2.16889 1.47867C2.22597 1.25547 2.28304 1.08808 2.28304 0.948579C2.28304 0.836982 2.31158 0.753283 2.28304 0.697485C2.28304 0.641686 2.22597 0.613787 2.14036 0.585887L1.82644 0.530087C1.82644 0.530087 1.74082 0.502189 1.71228 0.47429C1.68374 0.47429 1.6552 0.418491 1.6552 0.362692C1.6552 0.306894 1.6552 0.251094 1.71228 0.223195C1.76936 0.195295 1.82643 0.167395 1.91205 0.167395H5.22246C5.39369 0.167395 5.50784 0.139496 5.62199 0.0836974C5.73615 0.0278986 5.82177 0 5.90738 0C6.05007 0 6.13569 0.0836979 6.16422 0.223195L6.36399 1.50657C6.36399 1.50657 6.36399 1.64606 6.36399 1.70186C6.33545 1.75766 6.27838 1.75766 6.2213 1.78556C6.13569 1.78556 6.0786 1.78556 6.02152 1.72976C5.96445 1.67396 5.93591 1.61816 5.87884 1.53447C5.79322 1.25547 5.67907 1.03228 5.59346 0.892779C5.50785 0.753283 5.39369 0.641686 5.27954 0.585887C5.16539 0.530088 5.0227 0.50219 4.88001 0.50219H3.4531C3.39603 0.669586 3.33895 0.892781 3.28187 1.17177C3.2248 1.45077 3.13919 1.72976 3.05357 2.03665C2.96796 2.34355 2.88234 2.67834 2.79673 3.01313C2.71112 3.34793 2.6255 3.68272 2.51134 4.01751C2.42573 4.35231 2.34011 4.6592 2.2545 4.93819C2.16889 5.21719 2.11181 5.46828 2.05473 5.69147C1.99766 5.91467 1.96913 6.05416 1.94059 6.16576C1.94059 6.24946 1.94059 6.33316 1.94059 6.38896C1.94059 6.44476 1.99766 6.50056 2.05473 6.52846C2.11181 6.55636 2.22597 6.58426 2.34012 6.58426H3.51018C3.73849 6.58426 3.93825 6.55635 4.10948 6.47266C4.28071 6.38896 4.45193 6.27736 4.59462 6.08207C4.73731 5.88677 4.88001 5.66358 5.0227 5.35668C5.07977 5.24508 5.16539 5.16139 5.27954 5.16139C5.39369 5.16139 5.45077 5.24509 5.45077 5.38458C5.45077 5.60778 5.39369 5.83097 5.33662 6.02627C5.27954 6.22156 5.19393 6.38896 5.07977 6.55636C4.96562 6.72375 4.85147 6.83535 4.70878 6.91905C4.56609 7.00274 4.39486 7.05855 4.25217 7.05855C4.13801 7.05855 4.0524 7.05854 3.96679 7.00275C3.88118 6.94695 3.76702 6.94695 3.65287 6.94695L3.6814 6.89115ZM2.22597 3.34793H3.99532C4.13801 3.34793 4.25217 3.29213 4.33779 3.20843C4.4234 3.12473 4.48048 2.95734 4.48048 2.70624C4.48048 2.65044 4.50901 2.62254 4.56609 2.59464C4.59463 2.59464 4.62317 2.56674 4.68024 2.56674C4.73732 2.56674 4.79439 2.56674 4.82293 2.62254C4.85147 2.65044 4.88001 2.70624 4.88001 2.76204L5.13685 4.15701C5.13685 4.15701 5.13685 4.2965 5.10831 4.3523C5.07977 4.4081 5.0227 4.4081 4.96562 4.4081C4.90854 4.4081 4.85147 4.4081 4.82293 4.3802C4.79439 4.3802 4.76586 4.32441 4.73732 4.26861C4.65171 4.04541 4.56609 3.87801 4.48048 3.82222C4.36632 3.73852 4.22363 3.71062 4.0524 3.71062H2.14036L2.2545 3.37583L2.22597 3.34793Z" fill="var(--fill-0, white)"/>
</svg>
