<svg preserveAspectRatio="none" width="100%" height="100%" overflow="visible" style="display: block;" viewBox="0 0 6.75024 6.97485" fill="none" xmlns="http://www.w3.org/2000/svg">
<path id="Vector" d="M4.33065 0C4.75872 0 5.15826 0.111599 5.50071 0.278995C5.84317 0.446391 6.10002 0.697484 6.32832 1.03228C6.55662 1.36707 6.67078 1.72976 6.72785 2.14825C6.78493 2.56674 6.72785 3.04103 6.6137 3.57112C6.47101 4.12911 6.27124 4.6313 5.98586 5.04979C5.70048 5.46828 5.38656 5.83097 5.01557 6.13786C4.64457 6.41686 4.2165 6.64006 3.75989 6.77955C3.30329 6.91905 2.84668 6.97485 2.36153 6.97485C1.93346 6.97485 1.53393 6.86325 1.19147 6.66795C0.849012 6.47266 0.592167 6.22156 0.392401 5.91467C0.192634 5.60778 0.0784791 5.18928 0.0214029 4.74289C-0.0356732 4.2965 0.0214069 3.79432 0.192635 3.26423C0.335326 2.78994 0.53509 2.34355 0.791932 1.92506C1.04877 1.53447 1.39123 1.17178 1.76223 0.892782C2.13322 0.613788 2.53276 0.390591 2.98937 0.223195C3.41744 0.0836979 3.87404 6.3919e-07 4.35919 0.0279L4.33065 0ZM2.53276 6.58425C2.81814 6.58425 3.07498 6.55636 3.36036 6.44476C3.64574 6.33316 3.90258 6.16576 4.15943 5.91467C4.41627 5.66357 4.64457 5.35668 4.87288 4.96609C5.10118 4.5755 5.27241 4.10121 5.4151 3.54322C5.50072 3.26423 5.52925 2.98524 5.58633 2.76204C5.61487 2.53885 5.64341 2.31565 5.64341 2.12035C5.64341 1.75766 5.58633 1.45077 5.44364 1.19967C5.32949 0.94858 5.15826 0.753284 4.95849 0.613787C4.75873 0.47429 4.53042 0.418492 4.27358 0.390592C3.9882 0.390592 3.70282 0.418492 3.44597 0.53009C3.18913 0.641687 2.90375 0.836982 2.64691 1.08808C2.39006 1.33917 2.16176 1.64606 1.96199 2.00876C1.76223 2.37145 1.591 2.81784 1.47685 3.29213C1.39123 3.59902 1.33416 3.90592 1.30562 4.15701C1.27708 4.4081 1.24854 4.6313 1.24854 4.85449C1.24854 5.44038 1.3627 5.85887 1.61954 6.13786C1.87638 6.41686 2.1903 6.58425 2.61837 6.58425H2.53276Z" fill="var(--fill-0, white)"/>
</svg>
