<svg preserveAspectRatio="none" width="100%" height="100%" overflow="visible" style="display: block;" viewBox="0 0 7.19159 6.69585" fill="none" xmlns="http://www.w3.org/2000/svg">
<path id="Vector" d="M0.057072 6.55636C0.057072 6.55636 0.0570733 6.47266 0.114149 6.41686C0.171226 6.36106 0.199768 6.36106 0.285382 6.33316L0.570758 6.27736C0.570758 6.27736 0.684914 6.24946 0.713452 6.22156C0.770528 6.19366 0.799064 6.13787 0.85614 6.08207C0.884678 6.02627 0.941757 5.91467 0.970295 5.80307C0.998833 5.66358 1.05591 5.49618 1.11298 5.27299C1.17006 5.04979 1.22713 4.7987 1.31275 4.5476C1.39836 4.26861 1.45544 3.98961 1.54105 3.71062C1.62667 3.40372 1.71228 3.12473 1.7979 2.81784C1.88351 2.53884 1.96912 2.25985 2.0262 1.98086C2.08328 1.72976 2.16889 1.47867 2.19743 1.28337C2.2545 1.08808 2.28304 0.920682 2.31158 0.781185C2.31158 0.669587 2.31158 0.613789 2.31158 0.55799C2.31158 0.502191 2.22597 0.474292 2.14036 0.446392L1.88351 0.390592C1.88351 0.390592 1.74082 0.334794 1.71229 0.306895C1.68375 0.306895 1.65521 0.251096 1.65521 0.195298C1.65521 0.139499 1.6552 0.0836994 1.74082 0.0558001C1.7979 0.0279007 1.85497 0 1.96912 0H4.36632C4.82293 0 5.251 0.0836979 5.622 0.223195C5.99299 0.362692 6.30691 0.613788 6.56376 0.892782C6.8206 1.17178 6.99183 1.53447 7.10598 1.95296C7.22013 2.37145 7.22013 2.81784 7.10598 3.32003C7.02037 3.85012 6.84914 4.32441 6.59229 4.7429C6.33545 5.16139 6.02153 5.52408 5.65054 5.80307C5.27954 6.08207 4.85147 6.30526 4.36632 6.47266C3.88117 6.61215 3.36749 6.69585 2.82527 6.69585H0.228304C0.228304 6.69585 0.0856101 6.69586 0.057072 6.64006C0.0285339 6.61216 0 6.55636 0 6.52846L0.057072 6.55636ZM2.93942 6.33316C3.31041 6.33316 3.68141 6.27736 4.02387 6.13787C4.36633 5.99837 4.65171 5.80307 4.93709 5.55198C5.22247 5.30088 5.42223 4.96609 5.622 4.6034C5.82177 4.24071 5.93592 3.79432 6.02153 3.32003C6.10714 2.84574 6.10715 2.42725 6.05007 2.03666C5.99299 1.64607 5.87884 1.36707 5.70762 1.11598C5.53639 0.864883 5.33662 0.697487 5.10831 0.55799C4.88001 0.446392 4.62316 0.362692 4.36632 0.362692H3.88117C3.88117 0.362692 3.68141 0.390594 3.5958 0.446392C3.51018 0.502191 3.4531 0.613788 3.42457 0.753285C3.42457 0.864882 3.33895 1.03228 3.31042 1.25547C3.25334 1.47867 3.19627 1.70186 3.11065 1.98086C3.02504 2.25985 2.96796 2.53884 2.88235 2.81784C2.79673 3.12473 2.71112 3.40372 2.6255 3.71062C2.53989 4.01751 2.45428 4.29651 2.3972 4.5755C2.31158 4.8545 2.2545 5.10559 2.19743 5.30088C2.14035 5.52408 2.11182 5.69148 2.08328 5.83097C2.08328 5.99837 2.08328 6.10997 2.11182 6.19367C2.16889 6.27737 2.25451 6.30526 2.3972 6.30526H2.93942V6.33316Z" fill="var(--fill-0, white)"/>
</svg>
