<svg preserveAspectRatio="none" width="100%" height="100%" overflow="visible" style="display: block;" viewBox="0 0 6.10715 6.72375" fill="none" xmlns="http://www.w3.org/2000/svg">
<path id="Vector" d="M3.85264 0.195298C3.85264 0.195298 3.85264 0.0836994 3.90971 0.0558C3.96679 0.0279007 3.99533 0 4.08094 0H5.8503C5.8503 0 5.99299 1.27838e-06 6.05007 0.0558C6.10714 0.111599 6.10715 0.111599 6.10715 0.167397C6.10715 0.223196 6.10714 0.278996 6.05007 0.306895C6.02153 0.334794 5.96446 0.390592 5.87885 0.390592L5.70761 0.446392C5.70761 0.446392 5.50784 0.530089 5.42223 0.613787C5.33661 0.697485 5.25101 0.781185 5.16539 0.892782C5.07978 1.00438 4.99416 1.14388 4.88001 1.31127L1.99767 5.69148C1.99767 5.69148 1.91205 5.83097 1.88351 5.88677C1.85497 5.94257 1.82644 6.02627 1.7979 6.10997L1.71228 6.44476C1.71228 6.44476 1.65521 6.58426 1.59814 6.64006C1.54106 6.69586 1.48398 6.72375 1.36983 6.72375H0.599297C0.599297 6.72375 0.456607 6.69586 0.399531 6.64006C0.370993 6.58426 0.370993 6.50056 0.399531 6.41686L0.513686 6.08207C0.513686 6.08207 0.570764 5.91467 0.570764 5.83097C0.570764 5.74727 0.570764 5.66358 0.570764 5.60778V5.24509C0.570764 5.07769 0.570764 4.85449 0.570764 4.6313C0.570764 4.4081 0.570764 4.12911 0.570764 3.85012C0.570764 3.57112 0.570764 3.29213 0.570764 2.98524C0.570764 2.70624 0.570764 2.42725 0.570764 2.14825C0.570764 1.86926 0.570764 1.61816 0.570764 1.42287C0.570764 1.22757 0.570764 1.03228 0.570764 0.892782C0.570764 0.781185 0.570762 0.697485 0.513686 0.613787C0.485148 0.557988 0.428068 0.502189 0.342454 0.47429L0.142688 0.418492C0.142688 0.418492 0.0285333 0.390594 0.0285333 0.334795C0.0285333 0.306896 0 0.251094 0 0.223195C0 0.167396 -3.48174e-06 0.139499 0.0856107 0.0837001C0.171225 0.0279013 0.199767 0.0279 0.256843 0.0279H2.31159C2.31159 0.0279 2.42574 0.0279013 2.45428 0.0837001C2.48281 0.111599 2.51135 0.167398 2.51135 0.195298C2.51135 0.251096 2.51135 0.306896 2.45428 0.334795C2.42574 0.362694 2.36866 0.390593 2.31159 0.418492L1.94059 0.47429C1.94059 0.47429 1.76936 0.530089 1.71228 0.613787C1.68374 0.697485 1.6552 0.809083 1.6552 0.948579C1.6552 1.08808 1.6552 1.28337 1.6552 1.50657C1.6552 1.72976 1.6552 2.00876 1.6552 2.31565C1.6552 2.62254 1.6552 2.92944 1.6552 3.26423C1.6552 3.59902 1.6552 3.93381 1.6552 4.24071C1.6552 4.5755 1.6552 4.88239 1.6552 5.18929C1.6552 5.49618 1.6552 5.77517 1.6552 5.99837L1.31275 6.10997L4.48048 1.25547C4.56609 1.11598 4.62317 0.97648 4.65171 0.864882C4.68025 0.753285 4.65171 0.669585 4.59463 0.585887C4.56609 0.502189 4.48048 0.446392 4.39487 0.418492L4.13802 0.362692C4.13802 0.362692 3.93826 0.251096 3.93826 0.167397L3.85264 0.195298Z" fill="var(--fill-0, white)"/>
</svg>
