<svg preserveAspectRatio="none" width="100%" height="100%" overflow="visible" style="display: block;" viewBox="0 0 5.91481 7.30964" fill="none" xmlns="http://www.w3.org/2000/svg">
<path id="Vector" d="M1.60556 0.47429C1.77679 0.47429 1.97655 0.474291 2.20486 0.53009C2.43316 0.557989 2.66147 0.613788 2.88977 0.641687C3.11808 0.697486 3.34638 0.725383 3.57468 0.781182C3.80299 0.836981 4.00276 0.864883 4.17399 0.892782C4.34522 0.920682 4.4879 0.94858 4.60205 0.94858C4.71621 0.94858 4.83037 0.948581 4.88744 0.892782C4.94452 0.864883 5.00159 0.809083 5.03013 0.725385C5.03013 0.669586 5.05866 0.613786 5.05866 0.557987C5.05866 0.502188 5.05866 0.446391 5.05866 0.390592C5.05866 0.278995 5.11575 0.195296 5.20136 0.111597C5.28698 0.0278993 5.37258 0 5.51527 0C5.62942 0 5.74358 0.0278993 5.80066 0.111597C5.88627 0.195296 5.91481 0.334793 5.91481 0.50219C5.91481 0.781184 5.80066 1.00438 5.62943 1.14387C5.42966 1.31127 5.17282 1.39497 4.8589 1.39497C4.71621 1.39497 4.54498 1.39497 4.31668 1.33917C4.11691 1.31127 3.8886 1.25547 3.63176 1.19967C3.40346 1.14388 3.14662 1.08808 2.88977 1.03228C2.63293 0.976478 2.40462 0.920682 2.20486 0.892782C1.97655 0.864883 1.80533 0.836982 1.66264 0.836982C1.37726 0.836982 1.17749 0.892781 1.06334 0.97648C0.949188 1.06018 0.892112 1.19968 0.863574 1.33917C0.863574 1.42287 0.863574 1.47867 0.863574 1.53447C0.863574 1.59027 0.920652 1.64607 0.920652 1.70186C0.920652 1.75766 0.949185 1.81346 0.949185 1.89716C0.949185 2.00876 0.920644 2.09245 0.83503 2.17615C0.749416 2.25985 0.635267 2.28775 0.492576 2.28775C0.349886 2.28775 0.207192 2.23195 0.121578 2.12035C0.0359641 2.00876 -0.0211147 1.84136 0.00742338 1.64606C0.00742338 1.42287 0.0645095 1.22757 0.2072 1.06018C0.34989 0.892781 0.492571 0.753285 0.720875 0.641687C0.94918 0.53009 1.23457 0.50219 1.57703 0.50219L1.60556 0.47429ZM2.09071 6.58425C2.09071 6.58425 2.09071 6.72375 2.09071 6.77955C2.11925 6.83535 2.17632 6.86325 2.2334 6.86325L2.60439 6.94695C2.60439 6.94695 2.77562 7.05855 2.77562 7.11434C2.77562 7.17014 2.74709 7.22594 2.69001 7.25384C2.63293 7.28174 2.57586 7.30964 2.49024 7.30964H0.378421C0.378421 7.30964 0.235732 7.30964 0.178656 7.25384C0.150118 7.22594 0.121578 7.17014 0.121578 7.14224C0.121578 7.08645 0.12158 7.03064 0.178656 7.00274C0.207194 6.97484 0.264274 6.94695 0.349888 6.91905L0.692342 6.86325C0.692342 6.86325 0.835031 6.80745 0.892107 6.75165C0.949184 6.69586 0.97772 6.61216 1.0348 6.50056C1.09187 6.36106 1.14895 6.16576 1.20603 5.94257C1.2631 5.71937 1.34871 5.44038 1.43433 5.13349C1.51994 4.8266 1.60556 4.5197 1.71971 4.18491C1.80533 3.85012 1.91948 3.51532 2.00509 3.18053C2.0907 2.84574 2.17632 2.51094 2.26193 2.20405C2.34755 1.89716 2.43317 1.61816 2.49024 1.36707C2.57586 1.11597 2.60439 0.920679 2.66146 0.781182L3.68884 0.97648C3.63176 1.11598 3.57469 1.33917 3.51762 1.59027C3.46054 1.84136 3.37492 2.12035 3.28931 2.42725C3.20369 2.73414 3.11808 3.06893 3.03246 3.40373C2.94685 3.73852 2.8327 4.07331 2.74709 4.40811C2.66147 4.7429 2.57586 5.04979 2.49024 5.35669C2.40463 5.66358 2.34755 5.91467 2.26193 6.13786C2.20486 6.36106 2.14778 6.52846 2.11925 6.66795L2.09071 6.58425Z" fill="var(--fill-0, white)"/>
</svg>
