<svg preserveAspectRatio="none" width="100%" height="100%" overflow="visible" style="display: block;" viewBox="0 0 13.099 26.1417" fill="none" xmlns="http://www.w3.org/2000/svg">
<path id="Vector" d="M0 6.55636V5.69147H11.7862V6.55636H0ZM7.33428 26.1417C6.10715 26.1417 5.19394 25.8627 4.5661 25.3326C3.93826 24.8026 3.53872 24.133 3.31042 23.3518C3.08211 22.5427 2.9965 21.7615 2.9965 20.9524V1.31127C3.68141 1.31127 4.39487 1.17177 5.1654 0.89278C5.93592 0.613786 6.56376 0.306893 6.99183 0V21.9847C6.99183 23.0728 7.13452 23.7982 7.39136 24.1609C7.6482 24.5236 8.10481 24.7189 8.76119 24.7189C9.47464 24.7189 10.131 24.412 10.7874 23.7982C11.4438 23.1844 11.9575 22.4869 12.357 21.7057L13.099 22.1521C12.4997 23.3239 11.7577 24.3004 10.8159 25.0257C9.90271 25.7511 8.73265 26.1138 7.30575 26.1138L7.33428 26.1417Z" fill="var(--fill-0, white)"/>
</svg>
