<svg preserveAspectRatio="none" width="100%" height="100%" overflow="visible" style="display: block;" viewBox="0 0 6.03295 6.97485" fill="none" xmlns="http://www.w3.org/2000/svg">
<path id="Vector" d="M5.23388 4.91029C5.23388 4.91029 5.3195 4.96609 5.3195 5.04979C5.3195 5.13349 5.3195 5.18929 5.23388 5.30088C5.06265 5.66358 4.83435 5.94257 4.54897 6.19366C4.26359 6.44476 3.94967 6.64006 3.57867 6.77955C3.20768 6.91905 2.80814 6.97485 2.38007 6.97485C1.83785 6.97485 1.38124 6.86325 0.981708 6.61215C0.582175 6.36106 0.325335 5.99837 0.154107 5.52408C-0.0171216 5.04979 -0.0456616 4.4639 0.0684907 3.76642C0.154105 3.26423 0.296795 2.78994 0.553638 2.31565C0.781943 1.86926 1.06732 1.47867 1.43832 1.11598C1.78077 0.781184 2.18031 0.502191 2.60838 0.306895C3.03645 0.111599 3.5216 0 4.00675 0C4.20651 0 4.37774 1.27838e-06 4.52043 0.0558C4.66312 0.0836994 4.77727 0.139499 4.86289 0.195297C4.9485 0.251096 5.03412 0.278994 5.09119 0.334792C5.14827 0.362692 5.20534 0.390592 5.23388 0.390592C5.26242 0.390592 5.3195 0.390591 5.34804 0.334792C5.37657 0.306893 5.43365 0.251096 5.46219 0.195297C5.51926 0.139499 5.5478 0.111599 5.60488 0.0558C5.66195 0.0279007 5.69049 0 5.74757 0C5.80464 0 5.86172 1.27838e-06 5.89026 0.0558C5.9188 0.0836994 5.94733 0.139497 5.94733 0.223195L6.03295 1.81346C6.03295 1.81346 6.03295 1.92506 5.97587 1.98086C5.91879 2.00876 5.86172 2.03666 5.80464 2.03666C5.69049 2.03666 5.60488 1.98086 5.5478 1.84136L5.43365 1.45077C5.3195 1.08808 5.14827 0.809083 4.91997 0.641687C4.69166 0.474291 4.40628 0.390592 4.03528 0.390592C3.66429 0.390592 3.35037 0.474291 3.06499 0.641687C2.75107 0.809083 2.49423 1.03228 2.23738 1.33917C1.98054 1.64606 1.78078 1.98086 1.60955 2.37145C1.43832 2.76204 1.32417 3.18053 1.23855 3.62692C1.1244 4.26861 1.1244 4.77079 1.23855 5.18928C1.3527 5.60777 1.52393 5.88677 1.78078 6.08207C2.03762 6.27736 2.35154 6.36106 2.69399 6.36106C2.97937 6.36106 3.23622 6.30526 3.46452 6.22156C3.69283 6.13787 3.94967 5.97047 4.14944 5.77517C4.37774 5.57988 4.5775 5.32878 4.74873 5.02189C4.80581 4.93819 4.89143 4.88239 4.9485 4.85449C5.00558 4.8266 5.06266 4.8266 5.11973 4.85449L5.23388 4.91029Z" fill="var(--fill-0, white)"/>
</svg>
