<svg preserveAspectRatio="none" width="100%" height="100%" overflow="visible" style="display: block;" viewBox="0 0 6.13568 6.83535" fill="none" xmlns="http://www.w3.org/2000/svg">
<path id="Vector" d="M1.51251 5.57987C1.39836 5.77517 1.34129 5.94257 1.36983 6.08206C1.36983 6.22156 1.48397 6.30526 1.59813 6.33316L1.85497 6.38896C1.85497 6.38896 1.96912 6.44475 1.96912 6.47265C1.96912 6.50055 1.99767 6.52845 1.99767 6.58425C1.99767 6.64005 1.99767 6.69585 1.94059 6.72375C1.88351 6.75165 1.82644 6.77955 1.74082 6.77955H0.256843C0.256843 6.77955 0.0856155 6.77955 0.0570775 6.72375C1.30765e-06 6.69585 0 6.64005 0 6.58425C0 6.52845 1.30765e-06 6.47266 0.0570775 6.44476C0.0856155 6.41686 0.171224 6.36106 0.285376 6.33316C0.399529 6.30526 0.513684 6.22156 0.656374 6.08206C0.770527 5.94257 0.91322 5.77517 1.02737 5.57987L3.56726 1.53446C3.93825 1.00438 4.30925 0.613787 4.68024 0.362692C5.05124 0.111598 5.3937 0 5.76469 0C5.87884 0 5.99299 -1.38231e-06 6.05007 0.0557974C6.10714 0.111596 6.13568 0.139496 6.13568 0.195295C6.13568 0.251094 6.13568 0.278993 6.10715 0.306892C6.10715 0.334792 6.02153 0.36269 5.96446 0.39059C5.85031 0.418489 5.73615 0.47429 5.67907 0.585887C5.59346 0.669585 5.56493 0.836981 5.56493 1.00438C5.56493 1.11597 5.56493 1.28337 5.56493 1.50657C5.56493 1.70186 5.56493 1.95295 5.56493 2.23195C5.56493 2.51094 5.56493 2.78994 5.56493 3.06893C5.56493 3.34792 5.56493 3.65482 5.56493 3.96171C5.56493 4.2686 5.56493 4.5197 5.56493 4.79869C5.56493 5.04979 5.56493 5.30088 5.56493 5.49618V5.94257C5.56493 5.94257 5.56492 6.10997 5.59346 6.19366C5.59346 6.24946 5.67907 6.30526 5.73615 6.36106C5.79322 6.38896 5.87884 6.44475 5.99299 6.47265C6.10714 6.50055 6.13568 6.55636 6.13568 6.64005C6.13568 6.69585 6.13568 6.75165 6.0786 6.77955C6.02153 6.80745 5.96445 6.83535 5.87884 6.83535H3.88118C3.88118 6.83535 3.76702 6.83535 3.70995 6.77955C3.65287 6.72375 3.65287 6.69585 3.65287 6.66795C3.65287 6.64005 3.65287 6.58425 3.70995 6.55635C3.73849 6.52845 3.79556 6.50055 3.85264 6.47265L4.19509 6.38896C4.19509 6.38896 4.36632 6.30526 4.4234 6.24946C4.48048 6.16576 4.50901 6.08207 4.50901 5.97047C4.50901 5.85887 4.50901 5.69147 4.50901 5.46828C4.50901 5.27298 4.50901 5.02189 4.50901 4.74289C4.50901 4.4639 4.50901 4.18491 4.50901 3.90592C4.50901 3.62692 4.50901 3.29213 4.50901 3.01313C4.50901 2.73414 4.50901 2.42724 4.50901 2.14825C4.50901 1.86926 4.50901 1.61816 4.50901 1.39497C4.50901 1.17177 4.50901 1.00438 4.50901 0.864879L4.73732 0.948577C4.73732 0.948577 4.62317 1.03228 4.53755 1.11597C4.45194 1.19967 4.36632 1.28337 4.25217 1.39497C4.13801 1.50657 4.02387 1.67396 3.90971 1.84136L1.51251 5.71937V5.57987ZM1.88351 4.5476L1.99767 4.2128H4.76585V4.5476H1.88351Z" fill="var(--fill-0, white)"/>
</svg>
