<svg preserveAspectRatio="none" width="100%" height="100%" overflow="visible" style="display: block;" viewBox="0 0 18.4313 20.8408" fill="none" xmlns="http://www.w3.org/2000/svg">
<path id="Vector" d="M18.3536 3.71062C18.2109 2.62254 17.7257 1.72976 16.841 1.03228C15.9849 0.334792 14.5295 0 12.5032 0C12.0466 0 11.5615 0.0278993 11.1049 0.0836981V0.0278994C10.2487 0.139497 9.44967 0.278994 8.62207 0.47429C7.79446 0.669585 6.9954 0.864881 6.19633 1.17177L6.36756 1.67396C7.90862 1.19967 9.56382 1.00438 11.1905 0.864881C11.1905 0.864881 11.4473 0.864881 11.59 0.864881C12.7601 0.864881 13.5592 1.17177 14.0158 1.78556C14.4724 2.39935 14.6721 3.18053 14.6721 4.12911C14.6721 5.07769 14.558 6.08207 14.3582 7.14224L13.9587 9.2068H11.0193C7.90862 9.2068 5.39727 9.76478 3.51375 10.8808C1.63024 11.9967 0.488715 13.5033 0.11772 15.4563C-0.196199 17.1023 0.117719 18.4136 1.05948 19.3901C2.00123 20.3666 3.42814 20.8408 5.34019 20.8408C6.82417 20.8408 8.16546 20.4781 9.30698 19.7807C10.477 19.0832 11.4473 18.0788 12.2179 16.8233C12.3891 16.5443 12.5318 16.2653 12.6745 15.9863C12.6745 15.9863 12.1893 18.4136 11.7898 20.3945H15.671C15.9278 19.0553 16.1276 17.9951 16.1561 17.8556L18.2109 7.14224C18.4392 5.97047 18.4962 4.82659 18.3536 3.73852V3.71062ZM13.3594 12.3873C13.0455 13.9776 12.5603 15.2889 11.8469 16.349C11.1334 17.4092 10.3629 18.1904 9.47821 18.7205C8.62207 19.2506 7.76593 19.5017 6.93832 19.5017C6.16779 19.5017 5.59703 19.2785 5.1975 18.86C4.79797 18.4415 4.54112 17.8835 4.42697 17.2139C4.34136 16.5443 4.34136 15.8469 4.48405 15.1215C4.62674 14.3124 4.96919 13.5312 5.48288 12.7221C5.99656 11.913 6.71001 11.2714 7.5947 10.7134C8.47938 10.1833 9.56382 9.90428 10.8766 9.90428H13.816L13.3309 12.3873H13.3594Z" fill="var(--fill-0, white)"/>
</svg>
