<svg preserveAspectRatio="none" width="100%" height="100%" overflow="visible" style="display: block;" viewBox="0 0 6.58197 6.89115" fill="none" xmlns="http://www.w3.org/2000/svg">
<path id="Vector" d="M2.05474 3.85012L2.34013 3.57112C2.34013 3.57112 2.65405 3.71062 2.82527 3.76642C3.02504 3.82221 3.22481 3.85012 3.45311 3.85012C3.82411 3.85012 4.16656 3.79432 4.45194 3.65482C4.73732 3.51532 4.96563 3.32003 5.13686 3.06893C5.30809 2.81784 5.42224 2.51094 5.47932 2.17615C5.56493 1.78556 5.53639 1.45077 5.45077 1.19967C5.33662 0.948577 5.19394 0.753282 4.9371 0.613785C4.70879 0.474288 4.42341 0.41849 4.10949 0.41849C3.85265 0.41849 3.65287 0.446389 3.56726 0.530087C3.45311 0.613785 3.39604 0.725383 3.33896 0.86488C3.31042 0.976477 3.25335 1.14387 3.19627 1.36707C3.1392 1.59026 3.08212 1.81346 2.99651 2.09245C2.91089 2.37145 2.85381 2.65044 2.7682 2.95733C2.68258 3.26423 2.59697 3.57112 2.51135 3.87802C2.42574 4.18491 2.34013 4.4639 2.28305 4.7429C2.19744 5.02189 2.14036 5.27298 2.08329 5.46828C2.02621 5.69148 1.99767 5.85887 1.96913 5.97047C1.96913 6.08207 1.96913 6.16577 1.96913 6.19367C1.99767 6.24946 2.05475 6.27736 2.11182 6.30526L2.3972 6.36106C2.3972 6.36106 2.51136 6.41686 2.5399 6.44476C2.56844 6.47266 2.59696 6.50056 2.59696 6.55635C2.59696 6.61215 2.59697 6.66796 2.51135 6.69586C2.42574 6.72375 2.3972 6.75165 2.31159 6.75165H0.22831C0.22831 6.75165 0.0856155 6.75165 0.0570775 6.69586C0.0285394 6.66796 0 6.61215 0 6.58425C0 6.52846 1.30765e-06 6.47266 0.0570775 6.44476C0.0856155 6.41686 0.142696 6.38896 0.22831 6.36106L0.485153 6.30526C0.485153 6.30526 0.68492 6.24946 0.741996 6.19367C0.799072 6.13787 0.856146 6.05417 0.884684 5.94257C0.913222 5.83097 0.970296 5.66358 1.02737 5.46828C1.08445 5.27298 1.14152 5.02189 1.22714 4.7429C1.31275 4.4639 1.39837 4.18491 1.48398 3.87802C1.5696 3.57112 1.65521 3.26423 1.74082 2.95733C1.82644 2.65044 1.91206 2.34355 1.96913 2.06455C2.05475 1.78556 2.11182 1.53446 2.1689 1.31127C2.22598 1.08807 2.25452 0.92068 2.28305 0.809082C2.28305 0.697485 2.31159 0.613786 2.28305 0.557987C2.28305 0.502188 2.19744 0.474289 2.11182 0.44639L1.82645 0.39059C1.82645 0.39059 1.71228 0.334792 1.68375 0.306892C1.68375 0.278993 1.65521 0.251094 1.65521 0.195295C1.65521 0.139496 1.65521 0.0836968 1.74082 0.0557974C1.7979 0.027898 1.85498 0 1.94059 0H4.28071C4.82293 0 5.25101 0.0836966 5.622 0.278992C5.993 0.474288 6.24984 0.725384 6.42107 1.06018C6.59229 1.39497 6.62084 1.78556 6.53522 2.25985C6.44961 2.62254 6.27838 2.95733 6.02153 3.23633C5.76469 3.51532 5.42223 3.73852 4.99416 3.90592C4.56609 4.07331 4.10948 4.15701 3.56726 4.15701C3.2248 4.15701 2.93942 4.15701 2.71112 4.07331C2.48281 3.98961 2.22597 3.93381 2.05474 3.82222V3.85012ZM3.56726 4.12911L4.5661 3.96171L5.07978 5.55198C5.13686 5.71937 5.1654 5.83097 5.22247 5.94257C5.27955 6.02627 5.33662 6.08207 5.36516 6.13787C5.3937 6.19366 5.47932 6.19367 5.53639 6.19367C5.59347 6.19367 5.65054 6.19366 5.70761 6.13787C5.76469 6.10997 5.82178 6.05417 5.85031 5.99837C5.85031 5.99837 5.90739 5.94257 5.93592 5.94257C5.96446 5.94257 6.02154 5.94257 6.05008 5.94257C6.10716 5.94257 6.13569 5.99837 6.13569 6.02626C6.13569 6.08206 6.13569 6.13787 6.13569 6.19367C6.05008 6.38896 5.90739 6.55636 5.67908 6.69586C5.45078 6.83535 5.25101 6.89115 4.96563 6.89115C4.82294 6.89115 4.70878 6.89115 4.59463 6.80745C4.48048 6.75165 4.39487 6.66795 4.30925 6.52845C4.22364 6.38896 4.13802 6.22156 4.08095 5.97047L3.53873 4.12911H3.56726Z" fill="var(--fill-0, white)"/>
</svg>
