<svg preserveAspectRatio="none" width="100%" height="100%" overflow="visible" style="display: block;" viewBox="0 0 8.93242 6.72375" fill="none" xmlns="http://www.w3.org/2000/svg">
<path id="Vector" d="M4.39487 4.96609L4.02387 5.18929L7.07744 0.362692C7.07744 0.362692 7.24867 0.139496 7.36282 0.0836974C7.47697 0.0278986 7.56259 0 7.67674 0H8.67558C8.67558 0 8.81827 1.27838e-06 8.87534 0.0558C8.93242 0.111599 8.93242 0.139496 8.93242 0.195295C8.93242 0.251094 8.93242 0.306893 8.87534 0.334792C8.8468 0.362692 8.78972 0.390592 8.73264 0.390592L8.44727 0.44639C8.44727 0.44639 8.30458 0.502188 8.2475 0.557987C8.19043 0.613786 8.16188 0.697484 8.13335 0.781182C8.13335 0.920679 8.07627 1.11597 8.01919 1.36707C7.96212 1.61816 7.93358 1.84136 7.8765 2.12035C7.81943 2.39935 7.76236 2.67834 7.70528 2.98523C7.64821 3.29213 7.59113 3.57112 7.53405 3.87801C7.47697 4.18491 7.41989 4.4639 7.36282 4.715C7.30574 4.99399 7.27721 5.21719 7.22013 5.41248C7.16305 5.60778 7.16306 5.77517 7.13452 5.91467C7.13452 5.99837 7.13452 6.08207 7.13452 6.13787C7.13452 6.19367 7.22013 6.24946 7.30574 6.24946L7.61966 6.33316C7.61966 6.33316 7.70528 6.36106 7.73382 6.38896C7.76235 6.41686 7.76235 6.44476 7.76235 6.50056C7.76235 6.55636 7.76235 6.61216 7.67674 6.64006C7.59112 6.66796 7.56259 6.69585 7.47697 6.69585H5.42223C5.42223 6.69585 5.27954 6.69586 5.22246 6.64006C5.16539 6.58426 5.16538 6.55636 5.16538 6.50056C5.16538 6.44476 5.19393 6.38896 5.25101 6.36106C5.27954 6.33316 5.33662 6.30526 5.39369 6.30526L5.70761 6.24946C5.70761 6.24946 5.87884 6.19367 5.93591 6.13787C5.99299 6.08207 6.05007 5.99837 6.05007 5.88677C6.07861 5.69148 6.13569 5.49618 6.16422 5.24509C6.2213 4.99399 6.27837 4.7429 6.30691 4.4639C6.36399 4.18491 6.42107 3.90591 6.47814 3.59902C6.53522 3.29213 6.59229 2.98523 6.64937 2.70624C6.70644 2.39935 6.76352 2.12035 6.8206 1.81346C6.87767 1.53447 6.90621 1.25547 6.96329 1.00438H7.10597L4.19509 5.66358C4.10948 5.77517 4.02387 5.85887 3.96679 5.91467C3.90971 5.97047 3.8241 5.97047 3.73848 5.97047C3.65287 5.97047 3.59579 5.94257 3.53872 5.88677C3.48164 5.83097 3.45311 5.74728 3.42457 5.66358C3.39603 5.44038 3.33895 5.18929 3.31042 4.93819C3.28188 4.6871 3.2248 4.436 3.19626 4.15701C3.16772 3.87801 3.11064 3.62692 3.08211 3.34793C3.02503 3.06893 2.99649 2.81784 2.93942 2.53884C2.88234 2.25985 2.85381 2.00876 2.79673 1.75766C2.76819 1.50657 2.71112 1.25547 2.65404 1.00438H2.85381L1.4269 5.69148C1.36983 5.85887 1.36983 5.99837 1.4269 6.08207C1.45544 6.16576 1.54105 6.24946 1.6552 6.27736L1.94059 6.36106C1.94059 6.36106 2.11182 6.47266 2.08328 6.52846C2.08328 6.58426 2.05474 6.64005 1.99767 6.66795C1.94059 6.69585 1.85497 6.72375 1.76936 6.72375H0.256843C0.256843 6.72375 0.0856155 6.72375 0.0570775 6.66795C0.0285394 6.64005 0 6.58426 0 6.52846C0 6.47266 1.30765e-06 6.41686 0.0570775 6.38896C0.0856155 6.36106 0.142685 6.33316 0.228299 6.30526L0.456609 6.24946C0.456609 6.24946 0.627832 6.19367 0.684908 6.13787C0.741984 6.08207 0.799064 5.99837 0.85614 5.91467C0.913216 5.80307 0.970296 5.66358 1.02737 5.46828L2.3972 0.892779C2.3972 0.892779 2.45427 0.669586 2.3972 0.613787C2.3972 0.557988 2.31158 0.502189 2.22597 0.47429L1.88351 0.390592C1.88351 0.390592 1.7979 0.334794 1.76936 0.306895C1.76936 0.306895 1.74082 0.251094 1.74082 0.195295C1.74082 0.139496 1.76936 0.0836994 1.82644 0.0558C1.88351 0.0279007 1.94059 0 2.0262 0H3.05357C3.05357 0 3.28188 0.0278993 3.36749 0.111597C3.45311 0.195296 3.51018 0.306893 3.53872 0.47429C3.56725 0.697485 3.62433 0.92068 3.65287 1.17177C3.68141 1.42287 3.73849 1.64606 3.76702 1.89716C3.79556 2.14825 3.85264 2.39935 3.88118 2.65044C3.90972 2.90154 3.96679 3.18053 3.99532 3.43163C4.0524 3.68272 4.08095 3.96171 4.13802 4.21281C4.1951 4.4639 4.22364 4.715 4.28071 4.99399L4.39487 4.96609Z" fill="var(--fill-0, white)"/>
</svg>
