<svg preserveAspectRatio="none" width="100%" height="100%" overflow="visible" style="display: block;" viewBox="0 0 11.7577 25.6395" fill="none" xmlns="http://www.w3.org/2000/svg">
<path id="Vector" d="M0 6.41686L0.171228 5.57988H11.7577L11.5865 6.41686H0ZM3.53872 25.6395C2.34012 25.6395 1.48398 25.3884 0.970295 24.8584C0.456609 24.3283 0.171228 23.6866 0.114152 22.9054C0.0570761 22.1242 0.114152 21.343 0.256843 20.5618L3.93825 1.31127C4.59463 1.31127 5.33662 1.17177 6.13569 0.89278C6.96329 0.613786 7.61967 0.334793 8.10481 0L3.96679 21.5383C3.76703 22.5985 3.76703 23.3239 3.96679 23.6866C4.16656 24.0493 4.56609 24.2167 5.19393 24.2167C5.87884 24.2167 6.59229 23.9098 7.36282 23.3239C8.10481 22.7101 8.76119 22.0405 9.30341 21.2872L9.93125 21.7336C9.13218 22.9054 8.19043 23.8261 7.16306 24.5515C6.13569 25.2768 4.90855 25.6116 3.51018 25.6116L3.53872 25.6395Z" fill="var(--fill-0, white)"/>
</svg>
