<svg preserveAspectRatio="none" width="100%" height="100%" overflow="visible" style="display: block;" viewBox="0 0 14.6192 20.5618" fill="none" xmlns="http://www.w3.org/2000/svg">
<path id="Vector" d="M12.2428 9.37419C11.4152 8.872 10.502 8.45351 9.53172 8.11872C8.56142 7.75603 7.6482 7.42124 6.79205 7.05854C5.93591 6.69585 5.251 6.27736 4.76585 5.77517C4.28071 5.27298 4.10948 4.6313 4.25217 3.85012C4.36632 3.23633 4.6517 2.70624 5.07977 2.25985C5.50784 1.81346 6.05007 1.47867 6.67791 1.22757C7.30575 1.00438 7.96212 0.864881 8.64703 0.864881C9.87417 0.864881 10.9015 1.11598 11.7291 1.61816C12.5282 2.09245 13.1275 2.67834 13.527 3.40372L13.9266 2.31565C13.6412 1.92506 13.3844 1.72976 13.3844 1.72976C12.8707 1.19967 12.2143 0.781183 11.4438 0.47429C10.6732 0.167397 9.78855 0 8.78972 0C7.41989 0 6.2213 0.278994 5.22247 0.836982C4.22363 1.39497 3.42457 2.09245 2.85381 2.92944C2.25451 3.79432 1.88351 4.6592 1.71228 5.57988C1.45544 6.83535 1.54105 7.83973 1.96912 8.59301C2.36866 9.34629 2.9965 9.96008 3.76702 10.4344C4.56609 10.8808 5.42223 11.2714 6.33544 11.6061C7.2772 11.9409 8.13335 12.2478 8.96095 12.5826C9.76002 12.9174 10.4164 13.3638 10.873 13.8939C11.3296 14.424 11.4723 15.1494 11.3011 16.0421C11.1298 16.8791 10.7874 17.5487 10.2166 18.0788C9.64586 18.6089 8.98948 18.9995 8.21896 19.2785C7.44843 19.5296 6.64937 19.6691 5.82176 19.6691C4.73732 19.6691 3.76702 19.418 2.93942 18.9437C2.11181 18.4694 1.4269 17.7998 0.970289 16.9907C0.684909 16.4885 0.485145 15.9305 0.370993 15.3447L0 17.0186C0.485147 18.0509 1.08444 18.6647 1.08444 18.6647C1.68374 19.2506 2.3972 19.7249 3.2248 20.0597C4.0524 20.3944 4.99416 20.5618 5.99299 20.5618C7.36282 20.5618 8.64704 20.3108 9.84564 19.7807C11.0442 19.2506 12.0431 18.4973 12.8707 17.5487C13.6983 16.6001 14.2405 15.4842 14.4973 14.2008C14.7256 13.0011 14.64 12.0246 14.1834 11.2714C13.7553 10.5181 13.1275 9.87638 12.2714 9.37419H12.2428Z" fill="var(--fill-0, white)"/>
</svg>
