<svg preserveAspectRatio="none" width="100%" height="100%" overflow="visible" style="display: block;" viewBox="0 0 16.866 21.064" fill="none" xmlns="http://www.w3.org/2000/svg">
<path id="Vector" d="M16.2952 3.76642C15.9528 2.67834 15.2679 1.78556 14.2405 1.06018C13.2131 0.334793 11.6721 0 9.61733 0C8.58996 0 7.61967 0.111598 6.64938 0.306893C5.67908 0.530088 4.82294 0.809082 4.05241 1.19967C3.53873 1.45077 3.11065 1.72976 2.7682 2.06455V3.68272C2.85381 3.37583 3.02504 3.12473 3.22481 2.87364C3.62434 2.42725 4.10948 2.03666 4.73732 1.75766C5.36516 1.45077 6.02154 1.22757 6.76353 1.08808C7.47698 0.948579 8.19043 0.864881 8.84681 0.864881C10.0454 0.864881 10.9301 1.17177 11.5009 1.78556C12.0716 2.39935 12.4426 3.18053 12.6424 4.15701C12.8136 5.13349 12.8992 6.13787 12.8992 7.17014V9.2626H9.9027C6.73498 9.2626 4.28072 9.82058 2.56843 10.9366C0.856147 12.0525 0 13.587 0 15.54C0 17.2139 0.570763 18.5252 1.74082 19.5017C2.91089 20.4781 4.45194 20.9524 6.39253 20.9524C7.90505 20.9524 9.18926 20.5897 10.2452 19.8923C11.3011 19.1669 12.0716 18.1904 12.6424 16.907C12.7565 16.628 12.8421 16.349 12.9563 16.07V21.064C12.7851 20.8966 16.1525 20.9524 16.866 20.9524V7.17014C16.866 5.99837 16.6948 4.85449 16.3523 3.76642H16.2952ZM12.8707 12.4989C12.8707 14.0892 12.6138 15.4284 12.1001 16.4885C11.5865 17.5487 10.9301 18.3578 10.1596 18.8879C9.38903 19.418 8.56143 19.6691 7.73383 19.6691C6.9633 19.6691 6.30692 19.4459 5.82177 19.0274C5.30808 18.6089 4.96562 18.0509 4.73732 17.3534C4.50902 16.6838 4.39487 15.9584 4.39487 15.2331C4.39487 14.424 4.59463 13.6149 4.96563 12.8337C5.33662 12.0246 5.93592 11.3551 6.73499 10.825C7.53405 10.2949 8.58995 10.0159 9.9027 10.0159H12.8992V12.4989H12.8707Z" fill="var(--fill-0, white)"/>
</svg>
