<svg preserveAspectRatio="none" width="100%" height="100%" overflow="visible" style="display: block;" viewBox="0 0 5.79322 6.91905" fill="none" xmlns="http://www.w3.org/2000/svg">
<path id="Vector" d="M2.34012 6.89115C2.05474 6.89115 1.82644 6.89115 1.62667 6.80745C1.4269 6.75165 1.28421 6.69585 1.17006 6.64005C1.05591 6.58426 0.970293 6.50056 0.913217 6.44476C0.856141 6.38896 0.799067 6.36106 0.770529 6.36106C0.741991 6.36106 0.684912 6.36106 0.656374 6.44476C0.599298 6.50056 0.570762 6.55636 0.513686 6.61215C0.45661 6.66795 0.399536 6.72375 0.370998 6.77955C0.313922 6.83535 0.256848 6.86325 0.22831 6.86325C0.142696 6.86325 0.0856155 6.86325 0.0570774 6.80745C0.0285394 6.75165 0 6.69585 0 6.61215L0.199766 4.96609C0.199766 4.96609 0.2283 4.79869 0.285376 4.7708C0.342452 4.7429 0.370994 4.715 0.456609 4.715C0.542223 4.715 0.570765 4.715 0.627841 4.7708C0.656379 4.82659 0.713458 4.88239 0.741996 4.96609L0.799062 5.38458C0.827601 5.77517 0.998829 6.05417 1.25567 6.24946C1.51251 6.44476 1.82644 6.55635 2.19743 6.55635C2.42574 6.55635 2.65404 6.50056 2.85381 6.41686C3.05357 6.33316 3.19626 6.22156 3.31042 6.05416C3.42457 5.88677 3.51019 5.71938 3.53873 5.49618C3.5958 5.21719 3.53872 4.93819 3.39603 4.6871C3.25334 4.436 2.96796 4.18491 2.51135 3.90592C2.02621 3.59902 1.68375 3.29213 1.45545 2.98523C1.25568 2.67834 1.17006 2.31565 1.22714 1.89716C1.25568 1.56237 1.39837 1.25547 1.59814 0.976477C1.7979 0.697483 2.08328 0.446389 2.45428 0.278992C2.82527 0.111596 3.25334 0 3.76702 0C4.1951 0 4.56609 0.0557979 4.88001 0.195295C5.19393 0.334792 5.42224 0.50219 5.56493 0.725385C5.70762 0.94858 5.79322 1.17177 5.79322 1.42287C5.79322 1.56237 5.73616 1.70186 5.67908 1.78556C5.59347 1.86926 5.50785 1.92506 5.36516 1.92506C5.25101 1.92506 5.16539 1.89716 5.07977 1.84136C5.0227 1.78556 4.96563 1.67396 4.90855 1.56236L4.82293 1.22757C4.73732 0.920679 4.62317 0.725384 4.4234 0.557987C4.22363 0.41849 3.99533 0.334792 3.70995 0.334792C3.42457 0.334792 3.19627 0.390592 2.96796 0.50219C2.7682 0.613787 2.59697 0.753283 2.45428 0.92068C2.34012 1.08808 2.2545 1.28337 2.22597 1.50657C2.16889 1.81346 2.22597 2.09245 2.3972 2.34355C2.56843 2.59464 2.85381 2.87364 3.28188 3.15263C3.65288 3.40373 3.93826 3.62692 4.13802 3.85012C4.33779 4.07331 4.48048 4.26861 4.53755 4.4918C4.59463 4.715 4.62317 4.93819 4.59463 5.21719C4.56609 5.55198 4.45194 5.85887 4.25218 6.10996C4.05241 6.36106 3.79557 6.55636 3.48165 6.69585C3.16773 6.83535 2.79673 6.91905 2.3972 6.91905L2.34012 6.89115Z" fill="var(--fill-0, white)"/>
</svg>
