<svg preserveAspectRatio="none" width="100%" height="100%" overflow="visible" style="display: block;" viewBox="0 0 11.8081 25.6395" fill="none" xmlns="http://www.w3.org/2000/svg">
<path id="Vector" d="M0.0504054 6.41686L0.221638 5.57988H11.8081L11.6369 6.41686H0.0504054ZM3.44644 25.6395C2.24784 25.6395 1.3917 25.3884 0.878012 24.8584C0.364327 24.3283 0.0789483 23.6866 0.0218721 22.9054C-0.035204 22.1242 0.02187 21.343 0.16456 20.5618L3.96012 1.31127C4.61649 1.31127 5.35849 1.17177 6.1861 0.89278C7.0137 0.613786 7.67007 0.334793 8.15522 0L3.90305 21.5383C3.70329 22.5985 3.67474 23.3239 3.87451 23.6866C4.07427 24.0493 4.47381 24.2167 5.10165 24.2167C5.78656 24.2167 6.50002 23.9098 7.27055 23.3239C8.01254 22.7101 8.6689 22.0405 9.21112 21.2872L9.83897 21.7336C9.01136 22.9054 8.09814 23.8261 7.04224 24.5515C6.01487 25.2768 4.78773 25.6116 3.38937 25.6116L3.44644 25.6395Z" fill="var(--fill-0, white)"/>
</svg>
