<svg preserveAspectRatio="none" width="100%" height="100%" overflow="visible" style="display: block;" viewBox="0 0 4.28071 6.75165" fill="none" xmlns="http://www.w3.org/2000/svg">
<path id="Vector" d="M1.99767 5.99837C1.99767 5.99837 1.99767 6.16577 1.99767 6.22156C1.99767 6.27736 2.08328 6.30526 2.16889 6.33316L2.42574 6.38896C2.42574 6.38896 2.53989 6.41686 2.56843 6.44476C2.56843 6.47266 2.6255 6.50056 2.6255 6.55635C2.6255 6.61215 2.6255 6.66796 2.53989 6.69585C2.48281 6.72375 2.42574 6.75165 2.34012 6.75165H0.256843C0.256843 6.75165 0.0856155 6.75165 0.0570775 6.69585C0.0285394 6.66796 0 6.61215 0 6.58425C0 6.55635 1.30765e-06 6.50056 0.0570775 6.44476C0.114154 6.38896 0.14269 6.38896 0.228304 6.36106L0.513686 6.30526C0.513686 6.30526 0.684914 6.24946 0.741991 6.19366C0.799067 6.13787 0.856141 6.05417 0.884679 5.94257C0.913217 5.83097 0.970296 5.66358 1.02737 5.44038C1.08445 5.21718 1.14152 4.99399 1.22714 4.715C1.31275 4.436 1.36983 4.15701 1.45544 3.85012C1.54106 3.54322 1.62667 3.23633 1.71229 2.92943C1.7979 2.62254 1.88351 2.34355 1.94059 2.06455C2.0262 1.78556 2.08328 1.53446 2.14036 1.31127C2.19743 1.08807 2.22597 0.920679 2.25451 0.781182C2.25451 0.697484 2.25451 0.613786 2.25451 0.557987C2.25451 0.502188 2.16889 0.474289 2.08328 0.44639L1.7979 0.39059C1.7979 0.39059 1.68375 0.334792 1.65521 0.306892C1.62667 0.278993 1.62667 0.251094 1.62667 0.195295C1.62667 0.139496 1.62667 0.0836968 1.71229 0.0557974C1.76936 0.027898 1.85498 0 1.96913 0H4.02387C4.02387 0 4.1951 -1.38231e-06 4.22363 0.0557974C4.25217 0.111596 4.28071 0.111596 4.28071 0.167395C4.28071 0.223194 4.28071 0.278993 4.22363 0.306892C4.1951 0.334792 4.10948 0.36269 4.05241 0.39059L3.73849 0.47429C3.73849 0.47429 3.56726 0.530088 3.51018 0.557987C3.45311 0.585887 3.42457 0.669585 3.39603 0.781182C3.36749 0.920679 3.31041 1.11597 3.2248 1.33917C3.16772 1.56236 3.08211 1.84136 2.9965 2.12035C2.91088 2.39935 2.82527 2.70624 2.73965 3.04103C2.65404 3.34792 2.56842 3.68272 2.48281 3.98961C2.3972 4.2965 2.31158 4.5755 2.25451 4.85449C2.19743 5.13348 2.14035 5.35668 2.08328 5.55197C2.0262 5.74727 1.99767 5.88677 1.99767 5.97047V5.99837Z" fill="var(--fill-0, white)"/>
</svg>
