<svg preserveAspectRatio="none" width="100%" height="100%" overflow="visible" style="display: block;" viewBox="0 0 14.2856 21.0846" fill="none" xmlns="http://www.w3.org/2000/svg">
<path id="Vector" d="M11.5865 10.151C10.7018 9.53726 9.76002 9.00717 8.73265 8.53288C7.70528 8.0586 6.76353 7.58431 5.85031 7.13792C4.93709 6.66363 4.22364 6.16144 3.68141 5.60345C3.13919 5.04546 2.91089 4.34798 3.02504 3.56679C3.08212 2.95301 3.33896 2.42292 3.73849 2.00443C4.13802 1.58594 4.65171 1.30694 5.27955 1.11165C5.90739 0.944251 6.56376 0.888452 7.24867 0.972151C8.47581 1.11165 9.53173 1.47434 10.4449 2.08813C10.9016 2.39502 11.3011 2.72981 11.6435 3.0925L12.0716 2.28342C11.0728 1.27904 10.0454 0.832654 10.0454 0.832654C9.24634 0.414163 8.33312 0.163068 7.30575 0.0514707C5.90738 -0.0880263 4.73733 0.0514705 3.76704 0.52576C2.79674 1.00005 2.05474 1.61384 1.54106 2.45082C0.998835 3.2599 0.684922 4.15268 0.599308 5.07336C0.456617 6.32883 0.599309 7.38901 1.11299 8.22599C1.59814 9.06297 2.25451 9.76046 3.08212 10.3184C3.90972 10.8764 4.82294 11.3786 5.79324 11.825C6.76353 12.2714 7.67675 12.6899 8.53289 13.1363C9.38903 13.5827 10.0739 14.0849 10.5876 14.6986C11.1013 15.2845 11.3011 16.0657 11.1869 16.9585C11.1013 17.7955 10.7874 18.4651 10.2737 18.9673C9.76003 19.4694 9.10365 19.8042 8.33312 19.9716C7.56259 20.139 6.76353 20.1948 5.93592 20.1111C4.85148 19.9995 3.85265 19.6368 2.93943 19.0231C2.05475 18.4372 1.31275 17.6839 0.770529 16.7911C0.741991 16.7353 0.713457 16.6795 0.684918 16.6237L0 17.1817C0.285381 17.656 0.599307 18.1303 1.05592 18.5209C1.71229 19.1905 2.45428 19.7484 3.33896 20.1948C4.22364 20.6412 5.1654 20.9202 6.19277 21.0318C7.59113 21.1713 8.87535 21.0318 10.0169 20.6412C11.1869 20.2227 12.1287 19.5531 12.8992 18.6604C13.6697 17.7676 14.0978 16.6516 14.2405 15.3682C14.3832 14.1686 14.1834 13.1363 13.6983 12.2993C13.1846 11.4623 12.4997 10.7369 11.615 10.1231L11.5865 10.151Z" fill="var(--fill-0, white)"/>
</svg>
