<svg preserveAspectRatio="none" width="100%" height="100%" overflow="visible" style="display: block;" viewBox="0 0 20.0612 20.1713" fill="none" xmlns="http://www.w3.org/2000/svg">
<path id="Vector" d="M20.0052 3.12473C19.891 2.14825 19.4915 1.39497 18.7495 0.836982C18.0075 0.278994 16.7804 0 15.0966 0C13.5556 0 12.1858 0.362692 11.0157 1.11598C9.84564 1.84136 8.8468 2.78994 8.04773 3.90591C7.39136 4.79869 6.84914 5.74727 6.39253 6.69585L7.59113 0.418491H3.5958L0 20.1713H3.79556L5.76469 9.98798C5.96446 9.2068 6.24984 8.39771 6.62083 7.53283C7.10598 6.44476 7.70528 5.41248 8.47581 4.436C9.2178 3.45952 10.1025 2.65044 11.0728 2.00876C12.0716 1.36707 13.1561 1.06018 14.3261 1.06018C15.1252 1.06018 15.6674 1.31127 15.9528 1.81346C16.2382 2.31565 16.3523 3.04103 16.2667 3.93381C16.2096 4.85449 16.0384 5.88677 15.8101 7.08644L13.1846 20.1434H17.0087L19.8054 6.41686C20.0623 5.16139 20.1193 4.07331 20.0052 3.09683V3.12473Z" fill="var(--fill-0, white)"/>
</svg>
